<?xml version="1.0" encoding="UTF-8"?>
<!-- Generator: Adobe Illustrator 20.0.0, SVG Export Plug-In . SVG Version: 6.00 Build 0)  -->
<svg version="1.1" id="Layer_1" xmlns="http://www.w3.org/2000/svg" xmlns:xlink="http://www.w3.org/1999/xlink" x="0px" y="0px" viewBox="0 0 153.3 38.9" style="enable-background:new 0 0 153.3 38.9;" xml:space="preserve">
<style type="text/css">
	.st0{fill:#FFFFFF;}
	.st1{fill:#26A9E0;}
</style>
<title>search</title>
<path class="st0" d="M19.8,12.1h36.4c0.3,0,0.5,0.4,0.5,1v8.2c0,0.6-0.2,1-0.5,1H19.8c-0.3,0-0.5-0.4-0.5-1v-8.2  C19.4,12.5,19.6,12.1,19.8,12.1z"/>
<g id="icon-search">
	<path class="st1" d="M19.4,4.3c1.7,0,3.4,0.3,5,1c3.1,1.3,5.5,3.7,6.8,6.8c0.7,1.6,1,3.2,1,4.9c0,2.9-1,5.7-2.8,8l8,8   c0.5,0.6,0.4,1.5-0.2,2c-0.5,0.4-1.3,0.4-1.8,0l-8-8c-2.3,1.8-5.1,2.8-8,2.8c-1.7,0-3.4-0.3-5-1c-3-1.3-5.5-3.8-6.7-6.8   c-1.3-3.2-1.3-6.7,0-9.9c1.3-3.1,3.7-5.5,6.8-6.8C16,4.7,17.7,4.3,19.4,4.3L19.4,4.3z M19.4,7.1c-1.3,0-2.6,0.3-3.9,0.8   c-2.4,1-4.3,2.9-5.3,5.3c-1,2.5-1,5.2,0,7.7c1,2.4,2.9,4.3,5.3,5.3c2.5,1,5.2,1,7.7,0c2.4-1,4.3-2.9,5.3-5.3c1-2.5,1-5.2,0-7.7   c-1-2.4-2.9-4.3-5.3-5.3C22,7.4,20.7,7.1,19.4,7.1z"/>
</g>
<path class="st0" d="M61.7,12.1h36.4c0.3,0,0.5,0.4,0.5,1v8.2c0,0.6-0.2,1-0.5,1H61.7c-0.3,0-0.5-0.4-0.5-1v-8.2  C61.2,12.5,61.4,12.1,61.7,12.1z"/>
<path class="st0" d="M103.6,12.1H140c0.3,0,0.5,0.4,0.5,1v8.2c0,0.6-0.2,1-0.5,1h-36.4c-0.3,0-0.5-0.4-0.5-1v-8.2  C103.1,12.5,103.3,12.1,103.6,12.1z"/>
</svg>