<?xml version="1.0" encoding="UTF-8"?>
<!-- Generator: Adobe Illustrator 16.0.0, SVG Export Plug-In . SVG Version: 6.00 Build 0)  -->
<!DOCTYPE svg PUBLIC "-//W3C//DTD SVG 1.1//EN" "http://www.w3.org/Graphics/SVG/1.1/DTD/svg11.dtd">
<svg version="1.1" id="Layer_1" xmlns="http://www.w3.org/2000/svg" xmlns:xlink="http://www.w3.org/1999/xlink" x="0px" y="0px" width="167.228px" height="53.174px" viewBox="0 0 167.228 53.174" enable-background="new 0 0 167.228 53.174" xml:space="preserve">
<path fill="#36A9E1" d="M36.861,12.053c-7.212-0.578-13.549,4.819-14.127,12.032s4.82,13.55,12.033,14.127  c2.078,0.167,4.078-0.177,5.893-0.902l6.687,2.377l-1.194-6.488c1.531-1.956,2.529-4.362,2.742-7.019  C49.472,18.967,44.074,12.63,36.861,12.053z"/>
<g>
	<path fill="#FFFFFF" d="M31.552,28.79l-0.085-0.731h-0.036c-0.322,0.456-0.947,0.864-1.775,0.864c-1.176,0-1.775-0.828-1.775-1.668   c0-1.404,1.247-2.172,3.491-2.159v-0.121c0-0.479-0.132-1.343-1.319-1.343c-0.541,0-1.104,0.168-1.513,0.432L28.3,23.367   c0.48-0.312,1.176-0.516,1.907-0.516c1.776,0,2.207,1.212,2.207,2.376v2.171c0,0.504,0.024,0.996,0.097,1.392H31.552z    M31.394,25.827c-1.15-0.024-2.457,0.18-2.457,1.308c0,0.684,0.455,1.008,0.994,1.008c0.756,0,1.236-0.479,1.404-0.972   c0.036-0.108,0.059-0.229,0.059-0.336V25.827z"/>
	<path fill="#FFFFFF" d="M33.978,27.711c0.312,0.204,0.863,0.42,1.393,0.42c0.768,0,1.127-0.385,1.127-0.864   c0-0.504-0.3-0.779-1.08-1.067c-1.043-0.372-1.535-0.948-1.535-1.645c0-0.935,0.757-1.703,2.004-1.703   c0.588,0,1.104,0.168,1.427,0.359l-0.263,0.769c-0.229-0.144-0.648-0.336-1.188-0.336c-0.624,0-0.971,0.36-0.971,0.792   c0,0.479,0.347,0.695,1.103,0.983c1.008,0.384,1.524,0.889,1.524,1.752c0,1.02-0.792,1.74-2.173,1.74   c-0.635,0-1.223-0.157-1.631-0.396L33.978,27.711z"/>
	<path fill="#FFFFFF" d="M39.919,25.647h0.025c0.143-0.204,0.348-0.456,0.516-0.66l1.703-2.004h1.271l-2.244,2.388l2.557,3.419   h-1.284l-2.003-2.783l-0.541,0.601v2.183h-1.043v-8.518h1.043V25.647z"/>
</g>
<path fill="#FFFFFF" d="M21.445,24.302c0.217-2.707,1.232-5.16,2.788-7.157c-0.728-0.165-1.481-0.26-2.259-0.26  c-5.639,0-10.228,4.588-10.228,10.227c0,2.077,0.626,4.009,1.694,5.623l-1.331,4.967l5.341-1.431  c1.366,0.677,2.898,1.067,4.523,1.067c1.748,0,3.396-0.442,4.836-1.22C23.24,33.447,21.064,29.066,21.445,24.302z"/>
<g>
	<path fill="#36A9E1" d="M60.861,19.036v1.333h-6.572v4.52h5.888v1.314h-5.888v5.438h-1.44V19.036H60.861z"/>
	<path fill="#36A9E1" d="M70.491,28.417h-6.86l-1.404,3.223h-1.53l5.653-12.604h1.495L73.48,31.64h-1.566L70.491,28.417z    M69.915,27.085l-2.863-6.482l-2.827,6.482H69.915z"/>
	<path fill="#36A9E1" d="M76.897,19.036V31.64h-1.44V19.036H76.897z"/>
	<path fill="#36A9E1" d="M88.959,31.64l-2.647-4.033c-0.252,0.018-0.522,0.036-0.81,0.036h-3.349v3.997h-1.44V19.036h4.79   c3.151,0,4.969,1.549,4.969,4.231c0,2.071-1.026,3.493-2.845,4.069l2.971,4.303H88.959z M85.502,26.311   c2.287,0,3.583-1.026,3.583-3.007c0-1.927-1.296-2.935-3.583-2.935h-3.349v5.942H85.502z"/>
	<path fill="#FFFFFF" d="M95.958,23.286c-1.062,0-1.873,0.378-1.873,1.278c0,2.143,5.294,1.044,5.294,4.447   c0,1.854-1.657,2.683-3.475,2.683c-1.351,0-2.737-0.468-3.637-1.333l0.54-1.026c0.811,0.756,2.035,1.207,3.151,1.207   c1.117,0,2.017-0.432,2.035-1.387c0.054-2.305-5.257-1.134-5.239-4.483c0-1.8,1.566-2.575,3.295-2.575   c1.134,0,2.232,0.342,3.025,0.864l-0.541,1.081C97.795,23.574,96.841,23.286,95.958,23.286z"/>
	<path fill="#FFFFFF" d="M110.468,25.807v5.833h-1.404v-5.474c0-1.692-1.008-2.701-2.683-2.701   c-2.017,0.018-3.205,1.458-3.205,3.529v4.646h-1.405V18.28h1.405v6.014c0.648-1.477,1.944-2.161,3.691-2.179   C109.136,22.115,110.468,23.502,110.468,25.807z"/>
	<path fill="#FFFFFF" d="M119.485,31.64v-1.477c-0.756,1.026-1.962,1.531-3.475,1.531c-1.962,0-3.223-1.243-3.223-2.863   c0-1.656,1.314-2.701,3.547-2.719h3.115v-0.594c0-1.387-0.864-2.233-2.539-2.233c-1.044,0-2.017,0.396-3.007,1.098l-0.594-0.99   c1.225-0.81,2.25-1.278,3.871-1.278c2.341,0,3.637,1.242,3.655,3.259l0.018,6.266H119.485z M119.467,28.381v-1.152h-2.953   c-1.584,0-2.413,0.486-2.413,1.548c0,1.044,0.846,1.747,2.179,1.747C117.882,30.524,119.107,29.731,119.467,28.381z"/>
	<path fill="#FFFFFF" d="M128.791,22.115v1.369c-1.999-0.036-3.241,1.206-3.403,3.115v5.042h-1.404v-9.471h1.404v2.106   C126.018,22.89,127.188,22.133,128.791,22.115z"/>
	<path fill="#FFFFFF" d="M132.282,19.451c0,0.54-0.396,0.954-0.918,0.954c-0.522,0-0.918-0.414-0.918-0.954   c0-0.558,0.396-0.955,0.918-0.955C131.886,18.496,132.282,18.893,132.282,19.451z M132.065,22.169v9.471h-1.386v-9.471H132.065z"/>
	<path fill="#FFFFFF" d="M144.164,25.807v5.833h-1.404v-5.474c0-1.692-1.008-2.701-2.683-2.701c-1.873,0.018-3.025,1.26-3.187,3.097   v5.078h-1.404v-9.471h1.404v2.088c0.667-1.44,1.945-2.125,3.673-2.143C142.831,22.115,144.164,23.502,144.164,25.807z"/>
	<path fill="#FFFFFF" d="M155.558,22.169v8.48c0,2.773-1.891,4.519-4.771,4.519c-1.495-0.018-2.737-0.504-3.889-1.386l0.648-1.026   c0.937,0.774,1.927,1.188,3.187,1.207c2.071,0,3.421-1.278,3.421-3.277v-1.44c-0.667,1.26-1.891,1.98-3.493,1.98   c-2.557,0-4.321-1.891-4.321-4.573c0-2.665,1.747-4.52,4.285-4.538c1.621-0.018,2.845,0.72,3.529,1.98v-1.926H155.558z    M154.153,26.688c0-1.98-1.351-3.403-3.241-3.403c-1.909,0-3.241,1.422-3.259,3.403c0.018,1.963,1.35,3.385,3.259,3.385   C152.803,30.074,154.153,28.651,154.153,26.688z"/>
</g>
</svg>